<?xml version="1.0" encoding="utf-8"?>
<!-- Generator: Adobe Illustrator 24.3.0, SVG Export Plug-In . SVG Version: 6.00 Build 0)  -->
<svg version="1.1" id="Laag_1" xmlns="http://www.w3.org/2000/svg" xmlns:xlink="http://www.w3.org/1999/xlink" x="0px" y="0px"
	 viewBox="0 0 204.8 65.8" style="enable-background:new 0 0 204.8 65.8;" xml:space="preserve">
<style type="text/css">
	.st0{fill:#45B8AC;}
	.st1{fill:#282F3E;}
	.st2{fill:#FFFFFF;}
</style>
<g>
	<g>
		<path class="st0" d="M150,63.1c-1.5,1.8-3.9,2.7-6.2,2.7c-4.8,0-7.8-3.5-7.8-7.8c0-4.6,3.3-7.8,7.7-7.8c1.8,0,3.8,0.6,5.1,1.9
			c0.3,0.3,0.4,0.6,0.4,0.9c0,0.7-0.5,1.3-1.2,1.3c-0.3,0-0.6-0.1-0.9-0.3c-0.9-0.7-1.8-1.2-3.3-1.2c-3,0-4.9,2.2-4.9,5.3
			c0,3.1,1.8,5.4,5,5.4c1.5,0,2.9-0.5,3.8-1.4v-2.3h-2.9c-0.7,0-1.3-0.5-1.3-1.2s0.6-1.2,1.3-1.2h4.3c0.8,0,1.4,0.6,1.4,1.4v3.6
			C150.3,62.6,150.2,62.8,150,63.1z"/>
		<path class="st0" d="M163.3,51.6c0-0.8,0.6-1.4,1.4-1.4s1.4,0.6,1.4,1.4v7.8c0,3.9-2.4,6.4-6.5,6.4c-4,0-6.5-2.5-6.5-6.4v-7.8
			c0-0.8,0.6-1.4,1.4-1.4s1.4,0.6,1.4,1.4v8.1c0,2.1,1.3,3.6,3.7,3.6s3.7-1.5,3.7-3.6L163.3,51.6L163.3,51.6z"/>
		<path class="st0" d="M171.1,65.7c-0.8,0-1.4-0.6-1.4-1.4V51.6c0-0.8,0.6-1.4,1.4-1.4s1.4,0.6,1.4,1.4v12.7
			C172.5,65.1,171.9,65.7,171.1,65.7z"/>
		<path class="st0" d="M181.7,65.5h-4.2c-0.8,0-1.4-0.6-1.4-1.4V51.8c0-0.8,0.6-1.4,1.4-1.4h4.2c4.6,0,7.5,3.3,7.5,7.6
			C189.3,62.2,186.3,65.5,181.7,65.5z M181.6,53h-2.7v10h2.7c3.1,0,4.9-2.1,4.9-5C186.5,55,184.7,53,181.6,53z"/>
		<path class="st0" d="M202,65.5h-8.5c-0.8,0-1.4-0.6-1.4-1.4V51.8c0-0.8,0.6-1.4,1.4-1.4h8.2c0.7,0,1.3,0.5,1.3,1.3
			c0,0.7-0.6,1.3-1.3,1.3h-6.8v3.6h3.7c0.7,0,1.3,0.6,1.3,1.3c0,0.7-0.6,1.3-1.3,1.3h-3.7V63h7.1c0.7,0,1.3,0.6,1.3,1.3
			C203.3,65,202.7,65.5,202,65.5z"/>
	</g>
	<g>
		<path class="st1" d="M60.4,45.2l12.3-33.7h4.1l12.3,33.7h-7.4l-1.4-3.9H69.4L68,45.2H60.4z M78,35.3l-3.2-12.6l-3.2,12.7L78,35.3z
			"/>
		<path class="st1" d="M92.4,11.5h12c6.7,0,12.1,5.4,12.1,12c0,4.4-2.4,8.3-6,10.4l6,11.2H109l-5.1-9.6h-4.8v9.6h-6.7V11.5z
			 M104.5,28.9c2.9,0,5.3-2.4,5.3-5.3s-2.4-5.3-5.3-5.3h-5.3v10.6H104.5z"/>
		<path class="st1" d="M121.3,34.1V11.5h6.7v22.6c0,2.9,2.4,5.3,5.3,5.3s5.3-2.4,5.3-5.3V11.5h6.7V34c0,6.7-5.3,12.1-12,12.1
			C126.7,46.2,121.3,40.8,121.3,34.1z"/>
		<path class="st1" d="M151.4,11.5h11.3c8.9,0,13.7,8.8,8.7,15.5c7.3,6.3,3,18.3-7.8,18.3h-12.3V11.5H151.4z M163.2,25
			c4.6,0,4.6-6.8-0.5-6.8h-4.6V25H163.2z M163.7,38.5c5.8,0,5.8-7.7,0.5-7.7h-6.1v7.7H163.7z"/>
		<path class="st1" d="M176.1,45.2l12.3-33.7h4.1l12.3,33.7h-7.4l-1.4-3.9h-10.9l-1.4,3.9H176.1z M193.6,35.3l-3.2-12.6l-3.2,12.7
			L193.6,35.3z"/>
	</g>
	<g>
		<circle class="st0" cx="27.1" cy="27.1" r="27.1"/>
		<g>
			<path class="st2" d="M12.7,37.1c0.4-0.2,0.7-0.7,0.5-1.1l-2.9-7.5c-0.2-0.4-0.3-0.9-0.3-1.3c-0.1-1.4,0.6-3.1,2.1-3.7
				c1.9-0.7,3.5,0.5,4.3,2.6l2.9,7.4c0.2,0.4,0.7,0.7,1.1,0.5l0.8-0.3c0.4-0.2,0.7-0.7,0.5-1.1l-3-7.7c-0.2-0.4-0.3-0.9-0.3-1.3
				c0-1.4,0.7-2.8,2.1-3.4c2-0.8,3.6,0.4,4.6,3.1l2.7,7c0.2,0.4,0.7,0.7,1.1,0.5l0.8-0.3c0.4-0.2,0.7-0.7,0.5-1.1l-2.8-7.3
				c-1.9-4.8-5-4.9-6.9-4.2c-1.3,0.5-2.1,1.2-2.6,2.1c-0.4,0.6-0.7,1.4-0.9,2.4h-0.1c-1.2-1.4-3.1-2-4.9-1.2
				c-2.3,0.9-3.1,2.6-3.3,4.2H8.6L7.9,24c-0.2-0.4-0.7-0.6-1.1-0.4l-0.6,0.2C6,23.9,5.8,24.5,6,24.9c0.4,0.9,0.8,1.8,1.2,2.8
				l3.6,9.2c0.2,0.4,0.7,0.7,1.1,0.5L12.7,37.1z"/>
			<g>
				<path class="st2" d="M40.3,10.5l-1.1,0.4c-0.4,0.1-0.6,0.6-0.4,1l3,7.7c0.2,0.5,0.3,1,0.3,1.4c0,1.3-0.7,2.9-2.4,3.6
					c-2.3,0.9-3.8-0.6-4.8-3.2l-2.7-6.9c-0.1-0.4-0.5-0.5-0.9-0.4l-1.2,0.4c-0.4,0.1-0.5,0.5-0.4,0.9l2.9,7.4c1.9,4.8,4.9,5,7.1,4.2
					c2.4-0.9,3.3-2.8,3.5-4.2c0.6,1.9,0.9,3.2,0.8,5.1c0.1-0.1,0.3-0.2,0.5-0.3c0.7-0.3,1.5-0.1,2,0.5c0.1-1.4-0.1-2.4-0.4-3.8l0,0
					l0,0c-0.2-1.1-0.5-2.1-0.9-3.2l-0.1-0.3c0-0.1-0.1-0.3-0.1-0.4l-3.6-9.3C41.1,10.6,40.7,10.4,40.3,10.5z"/>
				<path class="st2" d="M46.3,29.3c-0.2-0.6-1-1-1.6-0.7c-0.5,0.2-0.8,0.6-0.8,1.1l0,0l0,0c-0.7,5.9-4.5,11.2-10.4,13.5
					c-5.8,2.3-12.3,1.1-16.9-3c-0.5-0.5-1.3-0.4-1.8,0.1s-0.4,1.3,0.1,1.8c5.4,4.7,12.8,6,19.5,3.4s11.1-8.7,11.9-15.4l0,0l0,0
					C46.4,29.9,46.4,29.6,46.3,29.3z"/>
			</g>
		</g>
	</g>
</g>
</svg>
